<?xml version="1.0" standalone="no"?>
<!DOCTYPE svg PUBLIC "-//W3C//DTD SVG 1.1//EN" "http://www.w3.org/Graphics/SVG/1.1/DTD/svg11.dtd">
<!-- Created with WaveDrom -->
<svg xmlns="http://www.w3.org/2000/svg" width="1500" height="174" viewBox="0 0 1500 174" class="WaveDrom" xmlns:xlink="http://www.w3.org/1999/xlink"><g transform="translate(0.5,0.5)" text-anchor="middle" font-size="12" font-family="sans-serif" font-weight="normal"><g transform="translate(4,96)"><g stroke="black" stroke-width="1" stroke-linecap="round"><line x2="1345"/><line x2="1345" y1="26" y2="26"/><line y2="26"/><line x1="1345" x2="1345" y2="26"/><line x1="1324" x2="1324" y2="3"/><line x1="1324" x2="1324" y1="26" y2="23"/><line x1="1303" x2="1303" y2="3"/><line x1="1303" x2="1303" y1="26" y2="23"/><line x1="1282" x2="1282" y2="3"/><line x1="1282" x2="1282" y1="26" y2="23"/><line x1="1261" x2="1261" y2="3"/><line x1="1261" x2="1261" y1="26" y2="23"/><line x1="1240" x2="1240" y2="3"/><line x1="1240" x2="1240" y1="26" y2="23"/><line x1="1219" x2="1219" y2="3"/><line x1="1219" x2="1219" y1="26" y2="23"/><line x1="1198" x2="1198" y2="3"/><line x1="1198" x2="1198" y1="26" y2="23"/><line x1="1177" x2="1177" y2="3"/><line x1="1177" x2="1177" y1="26" y2="23"/><line x1="1156" x2="1156" y2="3"/><line x1="1156" x2="1156" y1="26" y2="23"/><line x1="1135" x2="1135" y2="3"/><line x1="1135" x2="1135" y1="26" y2="23"/><line x1="1114" x2="1114" y2="3"/><line x1="1114" x2="1114" y1="26" y2="23"/><line x1="1093" x2="1093" y2="3"/><line x1="1093" x2="1093" y1="26" y2="23"/><line x1="1072" x2="1072" y2="3"/><line x1="1072" x2="1072" y1="26" y2="23"/><line x1="1051" x2="1051" y2="3"/><line x1="1051" x2="1051" y1="26" y2="23"/><line x1="1030" x2="1030" y2="3"/><line x1="1030" x2="1030" y1="26" y2="23"/><line x1="1009" x2="1009" y2="3"/><line x1="1009" x2="1009" y1="26" y2="23"/><line x1="988" x2="988" y2="3"/><line x1="988" x2="988" y1="26" y2="23"/><line x1="967" x2="967" y2="3"/><line x1="967" x2="967" y1="26" y2="23"/><line x1="946" x2="946" y2="3"/><line x1="946" x2="946" y1="26" y2="23"/><line x1="925" x2="925" y2="3"/><line x1="925" x2="925" y1="26" y2="23"/><line x1="904" x2="904" y2="3"/><line x1="904" x2="904" y1="26" y2="23"/><line x1="883" x2="883" y2="3"/><line x1="883" x2="883" y1="26" y2="23"/><line x1="862" x2="862" y2="3"/><line x1="862" x2="862" y1="26" y2="23"/><line x1="841" x2="841" y2="3"/><line x1="841" x2="841" y1="26" y2="23"/><line x1="820" x2="820" y2="3"/><line x1="820" x2="820" y1="26" y2="23"/><line x1="799" x2="799" y2="3"/><line x1="799" x2="799" y1="26" y2="23"/><line x1="778" x2="778" y2="3"/><line x1="778" x2="778" y1="26" y2="23"/><line x1="757" x2="757" y2="3"/><line x1="757" x2="757" y1="26" y2="23"/><line x1="736" x2="736" y2="3"/><line x1="736" x2="736" y1="26" y2="23"/><line x1="715" x2="715" y2="3"/><line x1="715" x2="715" y1="26" y2="23"/><line x1="694" x2="694" y2="3"/><line x1="694" x2="694" y1="26" y2="23"/><line x1="673" x2="673" y2="26"/><line x1="651" x2="651" y2="3"/><line x1="651" x2="651" y1="26" y2="23"/><line x1="630" x2="630" y2="3"/><line x1="630" x2="630" y1="26" y2="23"/><line x1="609" x2="609" y2="3"/><line x1="609" x2="609" y1="26" y2="23"/><line x1="588" x2="588" y2="26"/><line x1="567" x2="567" y2="3"/><line x1="567" x2="567" y1="26" y2="23"/><line x1="546" x2="546" y2="3"/><line x1="546" x2="546" y1="26" y2="23"/><line x1="525" x2="525" y2="3"/><line x1="525" x2="525" y1="26" y2="23"/><line x1="504" x2="504" y2="26"/><line x1="483" x2="483" y2="3"/><line x1="483" x2="483" y1="26" y2="23"/><line x1="462" x2="462" y2="3"/><line x1="462" x2="462" y1="26" y2="23"/><line x1="441" x2="441" y2="3"/><line x1="441" x2="441" y1="26" y2="23"/><line x1="420" x2="420" y2="3"/><line x1="420" x2="420" y1="26" y2="23"/><line x1="399" x2="399" y2="3"/><line x1="399" x2="399" y1="26" y2="23"/><line x1="378" x2="378" y2="3"/><line x1="378" x2="378" y1="26" y2="23"/><line x1="357" x2="357" y2="3"/><line x1="357" x2="357" y1="26" y2="23"/><line x1="336" x2="336" y2="3"/><line x1="336" x2="336" y1="26" y2="23"/><line x1="315" x2="315" y2="26"/><line x1="294" x2="294" y2="3"/><line x1="294" x2="294" y1="26" y2="23"/><line x1="273" x2="273" y2="3"/><line x1="273" x2="273" y1="26" y2="23"/><line x1="252" x2="252" y2="3"/><line x1="252" x2="252" y1="26" y2="23"/><line x1="231" x2="231" y2="26"/><line x1="210" x2="210" y2="3"/><line x1="210" x2="210" y1="26" y2="23"/><line x1="189" x2="189" y2="26"/><line x1="168" x2="168" y2="26"/><line x1="147" x2="147" y2="3"/><line x1="147" x2="147" y1="26" y2="23"/><line x1="126" x2="126" y2="3"/><line x1="126" x2="126" y1="26" y2="23"/><line x1="105" x2="105" y2="3"/><line x1="105" x2="105" y1="26" y2="23"/><line x1="84" x2="84" y2="26"/><line x1="63" x2="63" y2="3"/><line x1="63" x2="63" y1="26" y2="23"/><line x1="42" x2="42" y2="3"/><line x1="42" x2="42" y1="26" y2="23"/><line x1="21" x2="21" y2="3"/><line x1="21" x2="21" y1="26" y2="23"/></g><g><g><rect x="673" width="673" height="26" style="fill-opacity:0.1;fill:hsl(126,100%,50%)"/><rect x="588" width="84" height="26" style="fill-opacity:0.1;fill:hsl(170,100%,50%)"/><rect x="504" width="84" height="26" style="fill-opacity:0.1;fill:hsl(45,100%,50%)"/><rect x="315" width="189" height="26" style="fill-opacity:0.1;fill:hsl(215,100%,50%)"/><rect x="231" width="84" height="26" style="fill-opacity:0.1;fill:hsl(215,100%,50%)"/><rect x="189" width="42" height="26" style="fill-opacity:0.1;fill:hsl(0,100%,50%)"/><rect x="84" width="84" height="26" style="fill-opacity:0.1;fill:hsl(0,100%,50%)"/><rect width="84" height="26" style="fill-opacity:0.1"/></g><g transform="translate(11,-10)"/><g transform="translate(11,12)"><g transform="translate(998)"><text y="6"><tspan>Interrogation time</tspan></text></g><g transform="translate(620)"><text y="6"><tspan>YPos</tspan></text></g><g transform="translate(536)"><text y="6"><tspan>XPos</tspan></text></g><g transform="translate(399)"><text y="6"><tspan>Evt num</tspan></text></g><g transform="translate(263)"><text y="6"><tspan>Req ID</tspan></text></g><g transform="translate(200)"><text y="6"><tspan>Full</tspan></text></g><g transform="translate(168)"><text y="6"><tspan>0</tspan></text></g><g transform="translate(116)"><text y="6"><tspan>Word type</tspan></text></g><g transform="translate(32)"><text y="6"><tspan>Reserved</tspan></text></g></g><g transform="translate(11,32)"><g><g transform="translate(116)"><text y="6"><tspan>0x1 -- Timestamp data</tspan></text></g><g transform="translate(116,12)"><text y="6"><tspan>0x3 -- Reg request</tspan></text></g><g transform="translate(116,24)"><text y="6"><tspan>0x4 -- Reg response</tspan></text></g><g transform="translate(116,36)"><text y="6"><tspan>0x5 -- Event end</tspan></text></g></g></g></g><g text-anchor="start"><g transform="translate(1349,13)"><text y="6"><tspan>Evt end</tspan></text></g></g></g><g transform="translate(4,70)"><g stroke="black" stroke-width="1" stroke-linecap="round"><line x2="1345"/><line x2="1345" y1="26" y2="26"/><line y2="26"/><line x1="1345" x2="1345" y2="26"/><line x1="1324" x2="1324" y2="3"/><line x1="1324" x2="1324" y1="26" y2="23"/><line x1="1303" x2="1303" y2="3"/><line x1="1303" x2="1303" y1="26" y2="23"/><line x1="1282" x2="1282" y2="3"/><line x1="1282" x2="1282" y1="26" y2="23"/><line x1="1261" x2="1261" y2="3"/><line x1="1261" x2="1261" y1="26" y2="23"/><line x1="1240" x2="1240" y2="3"/><line x1="1240" x2="1240" y1="26" y2="23"/><line x1="1219" x2="1219" y2="3"/><line x1="1219" x2="1219" y1="26" y2="23"/><line x1="1198" x2="1198" y2="3"/><line x1="1198" x2="1198" y1="26" y2="23"/><line x1="1177" x2="1177" y2="3"/><line x1="1177" x2="1177" y1="26" y2="23"/><line x1="1156" x2="1156" y2="3"/><line x1="1156" x2="1156" y1="26" y2="23"/><line x1="1135" x2="1135" y2="3"/><line x1="1135" x2="1135" y1="26" y2="23"/><line x1="1114" x2="1114" y2="3"/><line x1="1114" x2="1114" y1="26" y2="23"/><line x1="1093" x2="1093" y2="3"/><line x1="1093" x2="1093" y1="26" y2="23"/><line x1="1072" x2="1072" y2="3"/><line x1="1072" x2="1072" y1="26" y2="23"/><line x1="1051" x2="1051" y2="3"/><line x1="1051" x2="1051" y1="26" y2="23"/><line x1="1030" x2="1030" y2="3"/><line x1="1030" x2="1030" y1="26" y2="23"/><line x1="1009" x2="1009" y2="26"/><line x1="988" x2="988" y2="3"/><line x1="988" x2="988" y1="26" y2="23"/><line x1="967" x2="967" y2="3"/><line x1="967" x2="967" y1="26" y2="23"/><line x1="946" x2="946" y2="3"/><line x1="946" x2="946" y1="26" y2="23"/><line x1="925" x2="925" y2="3"/><line x1="925" x2="925" y1="26" y2="23"/><line x1="904" x2="904" y2="3"/><line x1="904" x2="904" y1="26" y2="23"/><line x1="883" x2="883" y2="3"/><line x1="883" x2="883" y1="26" y2="23"/><line x1="862" x2="862" y2="3"/><line x1="862" x2="862" y1="26" y2="23"/><line x1="841" x2="841" y2="3"/><line x1="841" x2="841" y1="26" y2="23"/><line x1="820" x2="820" y2="3"/><line x1="820" x2="820" y1="26" y2="23"/><line x1="799" x2="799" y2="3"/><line x1="799" x2="799" y1="26" y2="23"/><line x1="778" x2="778" y2="3"/><line x1="778" x2="778" y1="26" y2="23"/><line x1="757" x2="757" y2="3"/><line x1="757" x2="757" y1="26" y2="23"/><line x1="736" x2="736" y2="3"/><line x1="736" x2="736" y1="26" y2="23"/><line x1="715" x2="715" y2="3"/><line x1="715" x2="715" y1="26" y2="23"/><line x1="694" x2="694" y2="3"/><line x1="694" x2="694" y1="26" y2="23"/><line x1="673" x2="673" y2="26"/><line x1="651" x2="651" y2="3"/><line x1="651" x2="651" y1="26" y2="23"/><line x1="630" x2="630" y2="3"/><line x1="630" x2="630" y1="26" y2="23"/><line x1="609" x2="609" y2="3"/><line x1="609" x2="609" y1="26" y2="23"/><line x1="588" x2="588" y2="26"/><line x1="567" x2="567" y2="3"/><line x1="567" x2="567" y1="26" y2="23"/><line x1="546" x2="546" y2="3"/><line x1="546" x2="546" y1="26" y2="23"/><line x1="525" x2="525" y2="3"/><line x1="525" x2="525" y1="26" y2="23"/><line x1="504" x2="504" y2="26"/><line x1="483" x2="483" y2="3"/><line x1="483" x2="483" y1="26" y2="23"/><line x1="462" x2="462" y2="3"/><line x1="462" x2="462" y1="26" y2="23"/><line x1="441" x2="441" y2="3"/><line x1="441" x2="441" y1="26" y2="23"/><line x1="420" x2="420" y2="3"/><line x1="420" x2="420" y1="26" y2="23"/><line x1="399" x2="399" y2="3"/><line x1="399" x2="399" y1="26" y2="23"/><line x1="378" x2="378" y2="3"/><line x1="378" x2="378" y1="26" y2="23"/><line x1="357" x2="357" y2="3"/><line x1="357" x2="357" y1="26" y2="23"/><line x1="336" x2="336" y2="3"/><line x1="336" x2="336" y1="26" y2="23"/><line x1="315" x2="315" y2="26"/><line x1="294" x2="294" y2="3"/><line x1="294" x2="294" y1="26" y2="23"/><line x1="273" x2="273" y2="3"/><line x1="273" x2="273" y1="26" y2="23"/><line x1="252" x2="252" y2="3"/><line x1="252" x2="252" y1="26" y2="23"/><line x1="231" x2="231" y2="26"/><line x1="210" x2="210" y2="3"/><line x1="210" x2="210" y1="26" y2="23"/><line x1="189" x2="189" y2="3"/><line x1="189" x2="189" y1="26" y2="23"/><line x1="168" x2="168" y2="26"/><line x1="147" x2="147" y2="3"/><line x1="147" x2="147" y1="26" y2="23"/><line x1="126" x2="126" y2="3"/><line x1="126" x2="126" y1="26" y2="23"/><line x1="105" x2="105" y2="3"/><line x1="105" x2="105" y1="26" y2="23"/><line x1="84" x2="84" y2="26"/><line x1="63" x2="63" y2="3"/><line x1="63" x2="63" y1="26" y2="23"/><line x1="42" x2="42" y2="3"/><line x1="42" x2="42" y1="26" y2="23"/><line x1="21" x2="21" y2="3"/><line x1="21" x2="21" y1="26" y2="23"/></g><g><g><rect x="1009" width="336" height="26" style="fill-opacity:0.1;fill:hsl(126,100%,50%)"/><rect x="673" width="336" height="26" style="fill-opacity:0.1;fill:hsl(80,100%,50%)"/><rect x="588" width="84" height="26" style="fill-opacity:0.1;fill:hsl(170,100%,50%)"/><rect x="504" width="84" height="26" style="fill-opacity:0.1;fill:hsl(45,100%,50%)"/><rect x="231" width="84" height="26" style="fill-opacity:0.1;fill:hsl(80,100%,50%)"/><rect x="84" width="84" height="26" style="fill-opacity:0.1;fill:hsl(0,100%,50%)"/><rect width="84" height="26" style="fill-opacity:0.1"/></g><g transform="translate(11,-10)"/><g transform="translate(11,12)"><g transform="translate(1166)"><text y="6"><tspan>Data</tspan></text></g><g transform="translate(830)"><text y="6"><tspan>Address</tspan></text></g><g transform="translate(620)"><text y="6"><tspan>YPos</tspan></text></g><g transform="translate(536)"><text y="6"><tspan>XPos</tspan></text></g><g transform="translate(399)"><text y="6"><tspan>0</tspan></text></g><g transform="translate(263)"><text y="6"><tspan>ReqID</tspan></text></g><g transform="translate(189)"><text y="6"><tspan>0</tspan></text></g><g transform="translate(116)"><text y="6"><tspan>Word type</tspan></text></g><g transform="translate(32)"><text y="6"><tspan>Reserved</tspan></text></g></g><g transform="translate(11,32)"/></g><g text-anchor="start"><g transform="translate(1349,13)"><text y="6"><tspan>Reg response</tspan></text></g></g></g><g transform="translate(4,44)"><g stroke="black" stroke-width="1" stroke-linecap="round"><line x2="1345"/><line x2="1345" y1="26" y2="26"/><line y2="26"/><line x1="1345" x2="1345" y2="26"/><line x1="1324" x2="1324" y2="3"/><line x1="1324" x2="1324" y1="26" y2="23"/><line x1="1303" x2="1303" y2="3"/><line x1="1303" x2="1303" y1="26" y2="23"/><line x1="1282" x2="1282" y2="3"/><line x1="1282" x2="1282" y1="26" y2="23"/><line x1="1261" x2="1261" y2="3"/><line x1="1261" x2="1261" y1="26" y2="23"/><line x1="1240" x2="1240" y2="3"/><line x1="1240" x2="1240" y1="26" y2="23"/><line x1="1219" x2="1219" y2="3"/><line x1="1219" x2="1219" y1="26" y2="23"/><line x1="1198" x2="1198" y2="3"/><line x1="1198" x2="1198" y1="26" y2="23"/><line x1="1177" x2="1177" y2="3"/><line x1="1177" x2="1177" y1="26" y2="23"/><line x1="1156" x2="1156" y2="3"/><line x1="1156" x2="1156" y1="26" y2="23"/><line x1="1135" x2="1135" y2="3"/><line x1="1135" x2="1135" y1="26" y2="23"/><line x1="1114" x2="1114" y2="3"/><line x1="1114" x2="1114" y1="26" y2="23"/><line x1="1093" x2="1093" y2="3"/><line x1="1093" x2="1093" y1="26" y2="23"/><line x1="1072" x2="1072" y2="3"/><line x1="1072" x2="1072" y1="26" y2="23"/><line x1="1051" x2="1051" y2="3"/><line x1="1051" x2="1051" y1="26" y2="23"/><line x1="1030" x2="1030" y2="3"/><line x1="1030" x2="1030" y1="26" y2="23"/><line x1="1009" x2="1009" y2="26"/><line x1="988" x2="988" y2="3"/><line x1="988" x2="988" y1="26" y2="23"/><line x1="967" x2="967" y2="3"/><line x1="967" x2="967" y1="26" y2="23"/><line x1="946" x2="946" y2="3"/><line x1="946" x2="946" y1="26" y2="23"/><line x1="925" x2="925" y2="3"/><line x1="925" x2="925" y1="26" y2="23"/><line x1="904" x2="904" y2="3"/><line x1="904" x2="904" y1="26" y2="23"/><line x1="883" x2="883" y2="3"/><line x1="883" x2="883" y1="26" y2="23"/><line x1="862" x2="862" y2="3"/><line x1="862" x2="862" y1="26" y2="23"/><line x1="841" x2="841" y2="3"/><line x1="841" x2="841" y1="26" y2="23"/><line x1="820" x2="820" y2="3"/><line x1="820" x2="820" y1="26" y2="23"/><line x1="799" x2="799" y2="3"/><line x1="799" x2="799" y1="26" y2="23"/><line x1="778" x2="778" y2="3"/><line x1="778" x2="778" y1="26" y2="23"/><line x1="757" x2="757" y2="3"/><line x1="757" x2="757" y1="26" y2="23"/><line x1="736" x2="736" y2="3"/><line x1="736" x2="736" y1="26" y2="23"/><line x1="715" x2="715" y2="3"/><line x1="715" x2="715" y1="26" y2="23"/><line x1="694" x2="694" y2="3"/><line x1="694" x2="694" y1="26" y2="23"/><line x1="673" x2="673" y2="26"/><line x1="651" x2="651" y2="3"/><line x1="651" x2="651" y1="26" y2="23"/><line x1="630" x2="630" y2="3"/><line x1="630" x2="630" y1="26" y2="23"/><line x1="609" x2="609" y2="3"/><line x1="609" x2="609" y1="26" y2="23"/><line x1="588" x2="588" y2="26"/><line x1="567" x2="567" y2="3"/><line x1="567" x2="567" y1="26" y2="23"/><line x1="546" x2="546" y2="3"/><line x1="546" x2="546" y1="26" y2="23"/><line x1="525" x2="525" y2="3"/><line x1="525" x2="525" y1="26" y2="23"/><line x1="504" x2="504" y2="26"/><line x1="483" x2="483" y2="3"/><line x1="483" x2="483" y1="26" y2="23"/><line x1="462" x2="462" y2="3"/><line x1="462" x2="462" y1="26" y2="23"/><line x1="441" x2="441" y2="3"/><line x1="441" x2="441" y1="26" y2="23"/><line x1="420" x2="420" y2="26"/><line x1="399" x2="399" y2="3"/><line x1="399" x2="399" y1="26" y2="23"/><line x1="378" x2="378" y2="3"/><line x1="378" x2="378" y1="26" y2="23"/><line x1="357" x2="357" y2="3"/><line x1="357" x2="357" y1="26" y2="23"/><line x1="336" x2="336" y2="26"/><line x1="315" x2="315" y2="26"/><line x1="294" x2="294" y2="3"/><line x1="294" x2="294" y1="26" y2="23"/><line x1="273" x2="273" y2="3"/><line x1="273" x2="273" y1="26" y2="23"/><line x1="252" x2="252" y2="3"/><line x1="252" x2="252" y1="26" y2="23"/><line x1="231" x2="231" y2="26"/><line x1="210" x2="210" y2="26"/><line x1="189" x2="189" y2="26"/><line x1="168" x2="168" y2="26"/><line x1="147" x2="147" y2="3"/><line x1="147" x2="147" y1="26" y2="23"/><line x1="126" x2="126" y2="3"/><line x1="126" x2="126" y1="26" y2="23"/><line x1="105" x2="105" y2="3"/><line x1="105" x2="105" y1="26" y2="23"/><line x1="84" x2="84" y2="26"/><line x1="63" x2="63" y2="3"/><line x1="63" x2="63" y1="26" y2="23"/><line x1="42" x2="42" y2="3"/><line x1="42" x2="42" y1="26" y2="23"/><line x1="21" x2="21" y2="3"/><line x1="21" x2="21" y1="26" y2="23"/></g><g><g><rect x="1009" width="336" height="26" style="fill-opacity:0.1;fill:hsl(126,100%,50%)"/><rect x="673" width="336" height="26" style="fill-opacity:0.1;fill:hsl(80,100%,50%)"/><rect x="588" width="84" height="26" style="fill-opacity:0.1;fill:hsl(170,100%,50%)"/><rect x="504" width="84" height="26" style="fill-opacity:0.1;fill:hsl(45,100%,50%)"/><rect x="420" width="84" height="26" style="fill-opacity:0.1;fill:hsl(170,100%,50%)"/><rect x="336" width="84" height="26" style="fill-opacity:0.1;fill:hsl(45,100%,50%)"/><rect x="231" width="84" height="26" style="fill-opacity:0.1;fill:hsl(80,100%,50%)"/><rect x="84" width="84" height="26" style="fill-opacity:0.1;fill:hsl(0,100%,50%)"/><rect width="84" height="26" style="fill-opacity:0.1"/></g><g transform="translate(11,-10)"/><g transform="translate(11,12)"><g transform="translate(1166)"><text y="6"><tspan>Data</tspan></text></g><g transform="translate(830)"><text y="6"><tspan>Address</tspan></text></g><g transform="translate(620)"><text y="6"><tspan>YPos</tspan></text></g><g transform="translate(536)"><text y="6"><tspan>XPos</tspan></text></g><g transform="translate(452)"><text y="6"><tspan>YHops</tspan></text></g><g transform="translate(368)"><text y="6"><tspan>XHops</tspan></text></g><g transform="translate(315)"><text y="6"><tspan>Q</tspan></text></g><g transform="translate(263)"><text y="6"><tspan>ReqID</tspan></text></g><g transform="translate(210)"><text y="6"><tspan>D</tspan></text></g><g transform="translate(189)"><text y="6"><tspan>R</tspan></text></g><g transform="translate(168)"><text y="6"><tspan>W</tspan></text></g><g transform="translate(116)"><text y="6"><tspan>Word type</tspan></text></g><g transform="translate(32)"><text y="6"><tspan>Reserved</tspan></text></g></g><g transform="translate(11,32)"/></g><g text-anchor="start"><g transform="translate(1349,13)"><text y="6"><tspan>Reg request</tspan></text></g></g></g><g transform="translate(4,18)"><g stroke="black" stroke-width="1" stroke-linecap="round"><line x2="1345"/><line x2="1345" y1="26" y2="26"/><line y2="26"/><line x1="1345" x2="1345" y2="26"/><line x1="1324" x2="1324" y2="3"/><line x1="1324" x2="1324" y1="26" y2="23"/><line x1="1303" x2="1303" y2="3"/><line x1="1303" x2="1303" y1="26" y2="23"/><line x1="1282" x2="1282" y2="3"/><line x1="1282" x2="1282" y1="26" y2="23"/><line x1="1261" x2="1261" y2="3"/><line x1="1261" x2="1261" y1="26" y2="23"/><line x1="1240" x2="1240" y2="3"/><line x1="1240" x2="1240" y1="26" y2="23"/><line x1="1219" x2="1219" y2="3"/><line x1="1219" x2="1219" y1="26" y2="23"/><line x1="1198" x2="1198" y2="3"/><line x1="1198" x2="1198" y1="26" y2="23"/><line x1="1177" x2="1177" y2="3"/><line x1="1177" x2="1177" y1="26" y2="23"/><line x1="1156" x2="1156" y2="3"/><line x1="1156" x2="1156" y1="26" y2="23"/><line x1="1135" x2="1135" y2="3"/><line x1="1135" x2="1135" y1="26" y2="23"/><line x1="1114" x2="1114" y2="3"/><line x1="1114" x2="1114" y1="26" y2="23"/><line x1="1093" x2="1093" y2="3"/><line x1="1093" x2="1093" y1="26" y2="23"/><line x1="1072" x2="1072" y2="3"/><line x1="1072" x2="1072" y1="26" y2="23"/><line x1="1051" x2="1051" y2="3"/><line x1="1051" x2="1051" y1="26" y2="23"/><line x1="1030" x2="1030" y2="3"/><line x1="1030" x2="1030" y1="26" y2="23"/><line x1="1009" x2="1009" y2="3"/><line x1="1009" x2="1009" y1="26" y2="23"/><line x1="988" x2="988" y2="3"/><line x1="988" x2="988" y1="26" y2="23"/><line x1="967" x2="967" y2="3"/><line x1="967" x2="967" y1="26" y2="23"/><line x1="946" x2="946" y2="3"/><line x1="946" x2="946" y1="26" y2="23"/><line x1="925" x2="925" y2="3"/><line x1="925" x2="925" y1="26" y2="23"/><line x1="904" x2="904" y2="3"/><line x1="904" x2="904" y1="26" y2="23"/><line x1="883" x2="883" y2="3"/><line x1="883" x2="883" y1="26" y2="23"/><line x1="862" x2="862" y2="3"/><line x1="862" x2="862" y1="26" y2="23"/><line x1="841" x2="841" y2="3"/><line x1="841" x2="841" y1="26" y2="23"/><line x1="820" x2="820" y2="3"/><line x1="820" x2="820" y1="26" y2="23"/><line x1="799" x2="799" y2="3"/><line x1="799" x2="799" y1="26" y2="23"/><line x1="778" x2="778" y2="3"/><line x1="778" x2="778" y1="26" y2="23"/><line x1="757" x2="757" y2="3"/><line x1="757" x2="757" y1="26" y2="23"/><line x1="736" x2="736" y2="3"/><line x1="736" x2="736" y1="26" y2="23"/><line x1="715" x2="715" y2="3"/><line x1="715" x2="715" y1="26" y2="23"/><line x1="694" x2="694" y2="3"/><line x1="694" x2="694" y1="26" y2="23"/><line x1="673" x2="673" y2="26"/><line x1="651" x2="651" y2="3"/><line x1="651" x2="651" y1="26" y2="23"/><line x1="630" x2="630" y2="3"/><line x1="630" x2="630" y1="26" y2="23"/><line x1="609" x2="609" y2="3"/><line x1="609" x2="609" y1="26" y2="23"/><line x1="588" x2="588" y2="26"/><line x1="567" x2="567" y2="3"/><line x1="567" x2="567" y1="26" y2="23"/><line x1="546" x2="546" y2="3"/><line x1="546" x2="546" y1="26" y2="23"/><line x1="525" x2="525" y2="3"/><line x1="525" x2="525" y1="26" y2="23"/><line x1="504" x2="504" y2="26"/><line x1="483" x2="483" y2="3"/><line x1="483" x2="483" y1="26" y2="23"/><line x1="462" x2="462" y2="3"/><line x1="462" x2="462" y1="26" y2="23"/><line x1="441" x2="441" y2="3"/><line x1="441" x2="441" y1="26" y2="23"/><line x1="420" x2="420" y2="3"/><line x1="420" x2="420" y1="26" y2="23"/><line x1="399" x2="399" y2="3"/><line x1="399" x2="399" y1="26" y2="23"/><line x1="378" x2="378" y2="3"/><line x1="378" x2="378" y1="26" y2="23"/><line x1="357" x2="357" y2="3"/><line x1="357" x2="357" y1="26" y2="23"/><line x1="336" x2="336" y2="3"/><line x1="336" x2="336" y1="26" y2="23"/><line x1="315" x2="315" y2="3"/><line x1="315" x2="315" y1="26" y2="23"/><line x1="294" x2="294" y2="3"/><line x1="294" x2="294" y1="26" y2="23"/><line x1="273" x2="273" y2="3"/><line x1="273" x2="273" y1="26" y2="23"/><line x1="252" x2="252" y2="3"/><line x1="252" x2="252" y1="26" y2="23"/><line x1="231" x2="231" y2="3"/><line x1="231" x2="231" y1="26" y2="23"/><line x1="210" x2="210" y2="3"/><line x1="210" x2="210" y1="26" y2="23"/><line x1="189" x2="189" y2="3"/><line x1="189" x2="189" y1="26" y2="23"/><line x1="168" x2="168" y2="26"/><line x1="147" x2="147" y2="3"/><line x1="147" x2="147" y1="26" y2="23"/><line x1="126" x2="126" y2="3"/><line x1="126" x2="126" y1="26" y2="23"/><line x1="105" x2="105" y2="3"/><line x1="105" x2="105" y1="26" y2="23"/><line x1="84" x2="84" y2="26"/><line x1="63" x2="63" y2="3"/><line x1="63" x2="63" y1="26" y2="23"/><line x1="42" x2="42" y2="3"/><line x1="42" x2="42" y1="26" y2="23"/><line x1="21" x2="21" y2="3"/><line x1="21" x2="21" y1="26" y2="23"/></g><g><g><rect x="673" width="673" height="26" style="fill-opacity:0.1;fill:hsl(126,100%,50%)"/><rect x="588" width="84" height="26" style="fill-opacity:0.1;fill:hsl(170,100%,50%)"/><rect x="504" width="84" height="26" style="fill-opacity:0.1;fill:hsl(45,100%,50%)"/><rect x="168" width="336" height="26" style="fill-opacity:0.1;fill:hsl(215,100%,50%)"/><rect x="84" width="84" height="26" style="fill-opacity:0.1;fill:hsl(0,100%,50%)"/><rect width="84" height="26" style="fill-opacity:0.1"/></g><g transform="translate(11,-10)"/><g transform="translate(11,12)"><g transform="translate(998)"><text y="6"><tspan>Timestamp</tspan></text></g><g transform="translate(620)"><text y="6"><tspan>YPos</tspan></text></g><g transform="translate(536)"><text y="6"><tspan>XPos</tspan></text></g><g transform="translate(326)"><text y="6"><tspan>Channel mask</tspan></text></g><g transform="translate(116)"><text y="6"><tspan>Word type</tspan></text></g><g transform="translate(32)"><text y="6"><tspan>Reserved</tspan></text></g></g><g transform="translate(11,32)"/></g><g text-anchor="start"><g transform="translate(1349,13)"><text y="6"><tspan>Timestamp data</tspan></text></g></g></g><g transform="translate(4,-3)"><g transform="translate(11,10)"><text y="6">63</text></g><g transform="translate(74,10)"><text y="6">60</text></g><g transform="translate(95,10)"><text y="6">59</text></g><g transform="translate(158,10)"><text y="6">56</text></g><g transform="translate(179,10)"><text y="6">55</text></g><g transform="translate(200,10)"><text y="6">54</text></g><g transform="translate(221,10)"><text y="6">53</text></g><g transform="translate(242,10)"><text y="6">52</text></g><g transform="translate(305,10)"><text y="6">49</text></g><g transform="translate(326,10)"><text y="6">48</text></g><g transform="translate(347,10)"><text y="6">47</text></g><g transform="translate(410,10)"><text y="6">44</text></g><g transform="translate(431,10)"><text y="6">43</text></g><g transform="translate(494,10)"><text y="6">40</text></g><g transform="translate(515,10)"><text y="6">39</text></g><g transform="translate(578,10)"><text y="6">36</text></g><g transform="translate(599,10)"><text y="6">35</text></g><g transform="translate(662,10)"><text y="6">32</text></g><g transform="translate(683,10)"><text y="6">31</text></g><g transform="translate(998,10)"><text y="6">16</text></g><g transform="translate(1019,10)"><text y="6">15</text></g><g transform="translate(1334,10)"><text y="6">0</text></g></g></g></svg>